<?xml version="1.0" standalone="no"?>
<!DOCTYPE svg PUBLIC "-//W3C//DTD SVG 20010904//EN"
 "http://www.w3.org/TR/2001/REC-SVG-20010904/DTD/svg10.dtd">
<svg version="1.0" xmlns="http://www.w3.org/2000/svg"
 width="260.000000pt" height="260.000000pt" viewBox="0 0 260.000000 260.000000"
 preserveAspectRatio="xMidYMid meet">
<metadata>
Created by potrace 1.11, written by Peter Selinger 2001-2013
</metadata>
<g transform="translate(0.000000,260.000000) scale(0.100000,-0.100000)"
fill="#000000" stroke="none">
<path d="M1970 2245 l0 -215 -195 0 -195 0 0 -112 0 -113 195 1 195 1 0 -213
c0 -160 3 -213 13 -216 10 -4 196 -3 220 1 4 0 7 97 7 214 l0 212 193 1 192 0
3 112 3 112 -196 0 -195 0 0 215 0 215 -120 0 -120 0 0 -215z"/>
<path d="M407 2214 c-1 -1 -47 -4 -102 -7 -95 -6 -234 -22 -282 -32 l-23 -5 0
-889 0 -889 48 -11 c177 -40 579 -48 805 -16 152 21 312 91 392 170 94 94 134
186 142 330 13 221 -65 365 -244 451 l-75 36 30 15 c42 20 113 89 144 139 43
67 58 134 54 242 -4 126 -38 207 -121 286 -75 72 -205 133 -318 150 -27 4 -59
9 -70 12 -58 12 -370 27 -380 18z m272 -279 c64 -6 131 -23 149 -37 6 -6 12
-8 12 -4 0 11 54 -27 83 -58 35 -38 50 -96 44 -163 -15 -163 -132 -218 -469
-222 l-168 -2 0 240 0 241 23 5 c49 11 217 11 326 0z m86 -755 c155 -28 239
-80 268 -165 20 -58 17 -168 -7 -217 -38 -79 -127 -136 -248 -159 -64 -12
-328 -20 -405 -11 l-43 4 0 279 0 280 193 -1 c105 -1 215 -6 242 -10z"/>
<path d="M1981 1212 c-7 -2 -11 -75 -11 -216 l0 -212 -195 1 -195 0 0 -112 0
-113 195 0 195 0 0 -215 0 -215 120 0 120 0 0 215 0 215 195 0 195 0 0 113 0
112 -195 0 -195 0 0 212 c0 117 -3 214 -7 214 -19 3 -213 4 -222 1z"/>
</g>
</svg>
