<?xml version="1.0" encoding="UTF-8" standalone="no"?>
<svg
   id="dynamix-logo"
   viewBox="0 0 744.09448819 1052.3622047">
  <defs
     id="defs-dynamix-logo" />
  <g
     id="layer1">
    <g
       id="_2560498157472"
       style="clip-rule:evenodd;fill-rule:evenodd;image-rendering:optimizeQuality;shape-rendering:geometricPrecision;text-rendering:geometricPrecision"
       transform="matrix(0.03543307,0,0,0.03543307,-26.573357,255.86043)">
      <g
         id="g56">
        <polygon
           class="fil1"
           points="9996,4181 9996,3476 10606,3124 10606,3829 "
           id="polygon58"
           style="fill:none" />
        <polygon
           class="fil2"
           points="10606,3783 9996,3476 10606,3124 11217,3476 "
           id="polygon60"
           style="fill:#00afef" />
        <polygon
           class="fil3"
           points="10606,2902 9996,2550 10606,2197 11217,2550 "
           id="polygon62"
           style="fill:#0077bd" />
        <polygon
           class="fil1"
           points="11217,3476 10606,3124 10606,3829 11217,4181 "
           id="polygon64"
           style="fill:none" />
        <polygon
           class="fil4"
           points="12024,3014 11413,2661 11413,3366 12024,3719 "
           id="polygon66"
           style="fill:#3e4095" />
        <polygon
           class="fil4"
           points="9194,3014 9804,2661 9804,3366 9194,3719 "
           id="polygon68"
           style="fill:#3e4095" />
        <polygon
           class="fil3"
           points="10561,3874 9996,3476 9996,4181 10606,4534 "
           id="polygon70"
           style="fill:#0077bd" />
        <polygon
           class="fil3"
           points="9804,4295 9194,3942 9194,4647 9804,5000 "
           id="polygon72"
           style="fill:#0077bd" />
        <polygon
           class="fil3"
           points="11413,4295 12024,3942 12024,4647 11413,5000 "
           id="polygon74"
           style="fill:#0077bd" />
        <polygon
           class="fil4"
           points="10606,4534 10652,3874 11217,3476 11217,4181 "
           id="polygon76"
           style="fill:#3e4095" />
        <polygon
           class="fil1"
           points="9996,4181 10610,4536 11217,4181 10606,3829 "
           id="polygon78"
           style="fill:none" />
        <polygon
           class="fil4"
           points="9996,5111 10610,5466 11217,5111 10606,4759 "
           id="polygon80"
           style="fill:#3e4095" />
      </g>
      <path
         class="fil5"
         d="m 7755,6846 386,0 c 118,0 207,-12 271,-51 92,-57 146,-159 146,-283 0,-205 -130,-327 -378,-327 l -425,0 0,661 z m 154,-124 0,-419 273,0 c 144,0 217,72 217,206 0,164 -97,213 -292,213 l -198,0 z m 1087,124 132,0 0,-246 295,-296 -155,0 -196,203 -194,-203 -178,0 296,299 0,243 z m 555,0 120,0 0,-365 458,365 91,0 0,-542 -119,0 0,360 -459,-360 -91,0 0,542 z m 1086,-218 121,-225 127,225 -248,0 z m -257,218 132,0 68,-119 359,0 68,119 148,0 -326,-542 -127,0 -322,542 z m 957,0 124,0 0,-408 c 0,-22 -1,-44 -4,-71 11,26 25,47 40,68 l 249,332 30,0 249,-331 c 11,-15 24,-39 38,-69 -4,35 -5,58 -5,71 l 0,408 142,0 0,-661 -123,0 -305,400 -311,-400 -124,0 0,661 z m 1138,0 132,0 0,-542 -132,0 0,542 z m 318,0 156,0 191,-202 208,202 180,0 -305,-293 247,-249 -152,0 -172,176 -181,-176 -177,0 273,264 -268,278 z"
         id="path82"
         style="fill:#3e4095;fill-rule:nonzero" />
    </g>
  </g>
</svg>
