<?xml version="1.0"?>
<svg xmlns="http://www.w3.org/2000/svg" width="100%" height="100%" viewBox="0 0 760 944" fill-rule="evenodd" stroke-linejoin="round" stroke-miterlimit="2">
  <defs>
    <linearGradient id="A" x1="652.04" y1="699.503" x2="153.716" y2="209.147" spreadMethod="pad" gradientUnits="userSpaceOnUse">
      <stop offset="0" stop-color="#173849"/>
      <stop offset="1" stop-color="#153c4d"/>
    </linearGradient>
    <radialGradient id="B" cx="176.44" cy="239.833" fx="176.44" fy="239.833" r="81.368" gradientTransform="matrix(1.7722923,0,0,1.564489,-136.26293,-137.50649)" gradientUnits="userSpaceOnUse">
      <stop offset="0" stop-color="#83e0fb"/>
      <stop offset="1" stop-color="#52a9ca"/>
    </radialGradient>
    <path id="C" d="M151.513 2167.932h194.491v90H151.513z"/>
    <path id="D" d="M151.514 1836.414h194.491v90H151.514z"/>
    <path id="E" d="M155.968 1835h194.491v90H155.968z"/>
    <path id="F" d="M152.064 2167.932h194.491v90H152.064z"/>
    <path id="G" d="M1303.459 2961.174v-233h76v233z"/>
  </defs>
  <g transform="translate(-20 -60)">
    <path d="M542.664 60.001c-6.836-.081-13.226 3.157-16.131 7.065-8.295 12.931-10.402 22.388-10.332 36.037v127.5h-16.864v-66.607c-.795-12.241-6.03-18.159-9.565-26.025-5.16-12.314-11.488-22.562-17.302-35.885-4.835-11.079-6.378-19.375-14.204-33.662-6.109-9.814-25.342-12.463-33.029.526-7.127 18.952-10.852 31.92-16.895 46.247-6.137 14.549-15.68 26.168-15.553 41.564v25.103H197.172c-39.635 0-71.543 34.187-71.543 76.653v396.041c0 42.466 31.908 76.653 71.543 76.653h406.262c39.635 0 71.543-34.187 71.543-76.653V258.517c0-32.335-18.521-59.824-44.847-71.116l-.154-17.865c-.788-27.36-22.314-33.529-47.309-65.982-11.501-15.023-15.555-18.285-21.198-30.708-4.687-9.365-11.968-12.764-18.804-12.844z" fill="url(#A)"/>
    <path d="M417.332 230.603h18.864l.263-48.99c.25-10.479 18.965-10.76 19.127 0l-.526 48.99h18.864l.79-48.99c.086-13.214-2.133-20.764-4.608-25.343-9.426-17.44-21.588-27.96-27.505-42.678-5.113 14.816-13.3 24.072-21.246 42.414-2.578 5.951-4.227 12.463-4.023 25.606zm125.164-121.664v153.348H414.588c-21.644 0-48.945 24.957-48.537 56.202l-56.995 32.374c-13.934 7.509-4.039 31.078 11.726 24.01 6.033-2.705 14.297-5.095 20.101-7.631 19.037-8.318 17.271 9.371 14.027 11.476-7.151 4.641-15.446 11.748-25.82 13.782v27.546c.724 11.453 18.469 11.112 30.964 5.266 19.301-9.03 17.84 13.075 13.029 15.076-16.808 6.989-24.29 10.335-50.439 3.537-1.541-.401-2.174 2.768-1.043 4.178 8.639 10.76 15.565 18.737 23.936 21.507s64.564 3.405 74.821 3.536 15.829 4.671 15.846 7.072v75.938c0 35.942-45.425 69.723-72.241 69.723h-200.9v28.922c.008 22.87 26.664 39.561 39.16 39.299h387.879c26.738.468 44.198-26.887 44.124-42.277V370.22c0-12.968-13.542-43.291-27.905-48.95l.891-133.848c-.045-9.436-19.075-30.255-23.998-35.619-13.219-14.402-31.879-32.666-40.717-42.864zm25.015 67.279c6.067.316 17.98 10.8 18.117 18.869l-.459 76.653c0 8.328-8.911 12.107-17.888 12.107-2.68 0-3.322-1.699-3.322-3.675V179.757c.07-2.62 1.529-3.644 3.552-3.539zm-113.87 157.825a23 23 0 0 1 22.996 22.996 23 23 0 0 1-22.996 22.996 23 23 0 0 1-22.996-22.996 23 23 0 0 1 22.996-22.996zm-155.413 52.035c5.422 3.639 11.149 6.615 15.331 6.264v25.04c0 23.085-15.115.365-15.331-5.11z" fill="#eee"/>
    <path d="M209.054 220.638c-25.479 0-45.992 20.512-45.992 45.992v108.848c.129 18.135 27.74 17.124 28.106 0v-80.741c0-25.48 20.512-45.992 45.992-45.992h74.098c19.641 0 19.128-28.106 0-28.106z" fill="url(#B)"/>
  </g>
  <path d="M77.927 879.6h9.961q6.185 0 6.185-1.823v-.391q0-7.357-8.529-29.557-1.628-4.232-2.214-4.232-.26 0-2.214 4.492-10.026 23.372-10.026 29.818 0 1.693 6.836 1.693zm43.75 33.463q0 3.45-6.38 3.45-6.38 0-9.245-3.971-1.758-2.474-4.102-9.44-2.279-7.031-3.451-8.398-1.953-2.213-10.026-2.213-16.406 0-20.833 2.279-2.409 1.237-5.143 8.919-2.734 7.682-4.036 9.31-2.474 3.06-8.398 3.06-5.859 0-5.859-2.734 0-2.734 11.849-38.281 11.849-35.547 12.37-36.654 5.013-10.286 7.031-12.044 2.083-1.758 7.812-1.758 5.729.065 7.617 1.497 4.622 3.581 13.477 29.622 8.919 26.042 10.417 32.292 1.497 6.185 4.167 15.039 2.734 8.854 2.734 10.026zm35.807-5.599v2.93q0 4.753-1.953 5.859-1.888 1.042-6.771 1.042h-3.451q-9.375 0-9.375-14.713v-1.042l.391-4.297q.195-1.888.195-2.083l.26-2.083q.326-3.581.326-8.268v-9.375l.065-2.344v-7.162l.065-3.646v-7.161l.065-2.409v-7.161l.065-2.409q0-5.273-.521-9.44-.521-4.167-.521-7.227 0-3.125 1.237-4.427 1.302-1.367 5.078-1.367h3.451q5.859.065 6.51 4.102.26 1.823.26 16.211l-.065 1.237q0 1.172 0 2.344l-.065 1.172q0 1.172 0 2.344l-.065 3.581v4.753l-.065 1.237v5.925l-.065 1.237v5.924l-.065 3.581v7.227l.13 4.622q0 4.753 2.409 12.37 2.474 7.617 2.474 8.919zm59.831-25.065q0-9.505-2.799-13.867-3.906-6.12-9.961-6.12h-2.604q-7.487 0-11.068 5.925-2.083 3.45-2.083 13.151v7.682l.065.651.065 1.888.195 3.125q0 5.013 2.93 8.268 2.995 3.19 8.138 3.19h1.823q6.575 0 10.807-5.013 4.297-5.078 4.297-12.695l.13-1.367.065-2.734zm-1.042 33.659q-5.273 2.083-10.091 2.083-4.753 0-7.031-.651-2.214-.651-4.427-1.432-2.214-.781-2.734-.781-3.06 0-3.06 17.578 0 6.12-1.758 8.464-1.693 2.344-6.445 2.344h-1.367q-4.687 0-5.599-1.823-.846-1.823-.846-14.518v-1.497l.065-1.497v-6.055l.326-17.838v-23.698q0-21.354.13-21.81.911-3.19 8.529-3.19 2.93 0 5.013 1.953 2.083 1.888 2.865 1.888.781 0 3.385-1.432 6.706-3.646 13.151-3.646 19.141 0 24.609 16.992 2.018 6.185 2.018 13.542v3.255q0 7.096-1.823 13.607-3.841 13.737-14.909 18.164zm44.336-18.229q0 3.32 3.32 5.534 3.32 2.214 7.161 2.214h1.888q6.576 0 10.286-4.753 1.628-2.083 1.628-8.463l.065-.781v-1.628q0-4.102-4.362-4.102h-5.273q-7.161 0-11.003 2.409-3.841 2.409-3.841 5.859v2.409q.13.912.13 1.302zm23.633-26.172q0-9.57-12.044-9.57-4.427 0-11.068 1.693-6.576 1.693-8.333 1.693-1.758 0-3.255-1.758-1.432-1.758-1.432-4.427 0-4.362 5.208-6.836 7.292-3.45 17.578-3.45h1.628q16.732 0 23.828 9.505 2.734 3.646 3.581 8.724.846 5.013.846 17.513 0 12.435.846 17.448.846 5.013.846 8.398 0 3.32-1.302 4.883-1.302 1.497-5.599 1.497-4.297 0-5.924-.846-1.628-.846-3.06-2.148-1.367-1.302-2.214-1.302-.846 0-7.487 2.669-6.641 2.604-11.458 2.604h-1.562q-9.375 0-14.714-5.664-5.339-5.729-5.339-13.802v-3.19q0-3.841 2.083-7.747 5.729-10.807 28.32-11.719 7.812-.325 8.919-.911 1.107-.651 1.107-3.255zm84.179-11.458q0 7.096-6.185 7.096-1.758 0-7.812-1.758-6.055-1.758-9.505-1.758-6.966 0-10.482 5.925-2.734 4.622-2.734 14.779 0 10.091 2.995 14.648 3.841 5.859 12.305 5.859 4.036 0 9.57-1.628 5.599-1.628 7.617-1.628 2.083 0 3.581 1.432 1.563 1.367 1.563 4.948 0 3.516-7.227 6.771-7.227 3.19-15.104 3.19h-1.497q-13.802 0-21.745-8.203-7.943-8.203-8.008-22.331v-4.622q0-15.495 8.333-24.088 8.333-8.594 24.414-8.594h1.432q5.729 0 10.807 2.344 7.682 3.516 7.682 7.617zm27.734 37.63q0 3.32 3.32 5.534 3.32 2.214 7.161 2.214h1.888q6.576 0 10.286-4.753 1.628-2.083 1.628-8.463l.065-.781v-1.628q0-4.102-4.362-4.102h-5.273q-7.161 0-11.003 2.409-3.841 2.409-3.841 5.859v2.409q.13.912.13 1.302zm23.633-26.172q0-9.57-12.044-9.57-4.427 0-11.068 1.693-6.576 1.693-8.333 1.693-1.758 0-3.255-1.758-1.432-1.758-1.432-4.427 0-4.362 5.208-6.836 7.292-3.45 17.578-3.45h1.628q16.732 0 23.828 9.505 2.734 3.646 3.581 8.724.846 5.013.846 17.513 0 12.435.846 17.448.846 5.013.846 8.398 0 3.32-1.302 4.883-1.302 1.497-5.599 1.497-4.297 0-5.924-.846-1.628-.846-3.06-2.148-1.367-1.302-2.214-1.302-.846 0-7.487 2.669-6.641 2.604-11.458 2.604h-1.562q-9.375 0-14.714-5.664-5.339-5.729-5.339-13.802v-3.19q0-3.841 2.083-7.747 5.729-10.807 28.32-11.719 7.812-.325 8.919-.911 1.107-.651 1.107-3.255z" fill="#153c4d"/>
  <path d="M470.114 874.131q0 6.771 1.563 12.76 4.362 16.667 21.68 16.667 5.924 0 13.216-2.865 7.292-2.93 9.961-2.93 2.734 0 4.232 1.758 1.497 1.758 1.497 4.036 0 5.143-10.482 10.287-8.529 4.167-18.945 4.167h-2.018q-9.7 0-17.187-3.45-14.258-6.575-18.294-21.484-2.539-9.44-2.539-20.898 0-23.047 9.961-35.156 4.492-5.469 12.825-9.115 8.398-3.646 16.341-3.646h1.953q10.742 0 16.862 2.995 6.12 2.995 9.049 6.901 1.107 1.497 1.107 4.688 0 3.19-1.888 5.078-1.888 1.888-4.687 1.888-2.734 0-10.872-3.125-8.138-3.19-13.346-3.19-5.208 0-9.375 2.279-4.102 2.279-6.25 5.859-4.362 7.161-4.362 26.497zm91.797 31.901h2.669q7.096 0 10.612-5.469 3.516-5.469 3.516-14.713v-3.451q0-9.44-3.776-14.779-3.711-5.404-10.352-5.404h-1.953q-6.445 0-10.352 5.078-3.841 5.013-3.841 14.453v4.167q0 9.115 3.516 14.648 3.581 5.469 9.961 5.469zm32.747-25.325v4.557q0 6.901-2.148 13.477-2.083 6.576-5.729 10.612-3.646 3.971-9.505 6.575-5.794 2.604-12.695 2.604h-3.451q-13.216 0-21.419-9.375-7.161-8.138-7.161-22.721v-4.557q0-7.292 2.214-13.477 2.279-6.185 6.055-10.156 3.841-3.971 9.831-6.185 6.055-2.214 13.216-2.214l1.172.065q6.055 0 11.654 2.083 11.654 4.427 15.885 16.081 2.083 5.664 2.083 12.63zm14.323-19.596v-2.018q0-3.776 1.563-5.534 1.628-1.758 5.143-1.758h.977q3.32 0 6.836 2.344 1.107.716 2.279 2.279 1.172 1.497 1.628 1.497.521 0 2.734-1.628 2.279-1.628 5.143-2.93 2.865-1.367 7.161-1.367 4.297 0 6.315 1.823 2.018 1.823 2.018 3.516 0 4.688-2.995 7.487-1.302 1.237-6.315 1.237-5.013 0-8.073 1.432-3.06 1.432-4.883 5.208-1.823 3.711-1.823 21.484 0 17.708-1.432 20.182-1.367 2.474-7.943 2.474h-1.107l-1.107-.065q-3.646 0-4.622-1.172-.977-1.172-.977-7.617l.586-12.044.13-3.32v-5.664l-.065-3.385v-2.279l-.065-3.32q0-1.107 0-2.214l-.13-3.32q0-2.734-.521-6.51-.456-3.841-.456-4.818zm92.383 13.412v-1.107q0-5.143-3.451-8.138-3.451-2.995-8.268-2.995h-1.628q-5.664 0-9.505 3.841-3.841 3.841-3.841 9.375v1.042q0 1.758 4.232 1.758h3.32l.391-.065 13.802-.651 1.432-.13q3.516 0 3.516-2.93zm-5.339 14.193q-21.029 0-21.029 4.427 0 5.599 4.102 8.854 4.102 3.255 10.352 3.255 6.25 0 12.044-1.628 5.794-1.693 7.812-1.693 2.083 0 3.451 1.693 1.432 1.628 1.432 4.948 0 3.255-7.161 6.641-7.096 3.385-14.648 3.385h-4.753q-5.599 0-11.849-2.279-12.24-4.427-15.82-16.146-2.018-6.51-2.018-13.151v-3.125q0-23.828 16.797-30.99 6.25-2.669 14.193-2.669 13.477 0 20.508 6.771 2.995 2.93 5.078 8.333 2.148 5.404 2.148 9.961v4.362q0 5.599-4.036 7.357-3.971 1.693-16.602 1.693z" fill="#52a9ca"/>
  <g fill="#153c4d">
    <g transform="matrix(.255511 0 0 .255511 -6.411342 -5.443601)">
      <circle cy="2218.932" cx="115.092" r="90"/>
      <use href="#C"/>
      <circle cy="1886.684" cx="115.092" r="90"/>
      <use href="#D"/>
      <circle cy="1554.436" cx="115.092" r="90"/>
      <use href="#D" y="-326.978"/>
      <g transform="matrix(1 0 0 -1 -4.453697 3107.4577)">
        <circle cy="1885.27" cx="119.546" r="90"/>
        <use href="#E"/>
      </g>
      <g transform="matrix(1 0 0 -1 -.550598 3108.8716)">
        <circle cy="2218.932" cx="115.643" r="90"/>
        <use href="#F"/>
      </g>
    </g>
    <g transform="matrix(-.255511 0 0 .255511 766.41134 -5.443601)">
      <circle cy="2218.932" cx="115.092" r="90"/>
      <use href="#C"/>
      <circle cy="1886.684" cx="115.092" r="90"/>
      <use href="#D"/>
      <circle cy="1554.436" cx="115.092" r="90"/>
      <use href="#D" y="-326.978"/>
      <g transform="matrix(1 0 0 -1 -4.453697 3107.4577)">
        <circle cy="1885.27" cx="119.546" r="90"/>
        <use href="#E"/>
      </g>
      <g transform="matrix(1 0 0 -1 -.550598 3108.8716)">
        <circle cy="2218.932" cx="115.643" r="90"/>
        <use href="#F"/>
      </g>
    </g>
    <g transform="matrix(.255511 0 0 .255511 -5.445733 -6.465641)">
      <g transform="matrix(1 0 0 -1 -1.561104 3138.4366)">
        <circle cy="1339.459" cx="-3030.561" transform="rotate(270)" r="82"/>
        <use href="#G"/>
      </g>
      <g transform="matrix(1 0 0 -1 .220866 3138.8797)">
        <circle cy="998.198" cx="-3031.004" transform="rotate(270)" r="82"/>
        <use href="#G" x="-339.459" y="0.443"/>
      </g>
    </g>
    <g transform="matrix(.255511 0 0 .255511 -5.389299 -2.377471)">
      <circle cy="1339.459" cx="-3030.561" transform="matrix(0 -1 1 0 -1.782 -1.285)" r="82"/>
      <use href="#G" x="-1.782" y="-1.285"/>
      <g transform="matrix(-1 0 0 1 3016.6153 -1.285384)">
        <circle cy="1339.459" cx="-3030.561" transform="rotate(270)" r="82"/>
        <use href="#G"/>
      </g>
      <circle cy="998.198" cx="-3031.004" transform="matrix(0 -1 1 0 0 -1.728)" r="82"/>
      <use href="#G" x="-339.459" y="-1.285"/>
      <g transform="matrix(-1 0 0 1 3014.8333 -1.7285)">
        <circle cy="998.198" cx="-3031.004" transform="rotate(270)" r="82"/>
        <use href="#G" x="-339.459" y="0.443"/>
      </g>
    </g>
  </g>
</svg>
